<svg width="512" height="512" viewBox="0 0 512 512" fill="none" xmlns="http://www.w3.org/2000/svg">
<path d="M187.6 93.5002C174.3 98.2002 170 115 179.3 125.7C185.9 133.2 195.1 134.9 204.1 130.2C208.4 128 210 126.4 212.2 122.1C216.9 113.1 215.2 103.9 207.7 97.3002C201.9 92.2002 194.9 90.9002 187.6 93.5002ZM199.2 107.7C201.6 109.9 201.5 115.2 199 117.5C194.7 121.4 188 118.4 188 112.4C188 106.9 195 103.9 199.2 107.7Z" fill="white"/>
<path d="M320.2 100.6C316.9 102.9 317.2 108.1 321.1 112.5L324.2 116L321.1 119.5C317.2 123.9 316.9 129.1 320.2 131.4C323.6 133.8 326.6 133.3 330.8 129.6L334.5 126.2L338.3 129.6C342.3 133.3 345.3 133.8 348.8 131.4C352.1 129.1 351.8 123.9 347.9 119.5L344.8 116L347.9 112.5C351.8 108.1 352.1 102.9 348.8 100.6C345.4 98.2001 342.7 98.7001 338.4 102.4L334.5 105.7L330.6 102.4C326.2 98.7001 323.6 98.2001 320.2 100.6Z" fill="white"/>
<path d="M251.5 128.5C246.7 133.2 249.6 140 256.3 140C262.8 140 265.6 132.6 261 128C258.3 125.3 254.4 125.5 251.5 128.5Z" fill="white"/>
<path d="M243 162C225.1 166.5 209.7 181.1 203.8 198.9C201.8 205 201.6 208.1 201.2 241.5L200.8 277.4L197.8 281.8C196.1 284.2 194.5 285.8 194.1 285.3C193.7 284.9 191.4 281.9 189.1 278.7C184.1 272.1 177.5 266.5 169.7 262.5L164.3 259.6L165.7 256.2C166.8 253.5 167 247 166.8 222.7C166.5 194.3 166.4 192.2 164.4 187.9C161.8 182.3 155.9 175.6 150.7 172.3C142.8 167.3 130.4 166 122 169.2C120.6 169.7 118.7 170.3 117.7 170.5C112.5 171.6 104 180.8 100.8 188.9C98.7999 194 98.5999 196.7 98.1999 220.5C97.7999 243.9 98.3999 253.3 100.4 258C100.8 259.1 99.4999 260.3 95.7999 262.2C81.8999 269.5 71.4999 282.1 66.4999 298C64.9999 302.5 64.5999 308.4 64.1999 330.7L63.7999 358H52.5999C36.6999 358 36.9999 357.6 36.9999 378.9C36.9999 394.8 37.0999 395.1 39.4999 397.5C41.7999 399.9 42.5999 400 52.9999 400H63.9999V416.5V433H52.5999C41.3999 433 41.0999 433.1 39.0999 435.6C36.4999 438.9 36.3999 442.1 38.8999 445.1L40.7999 447.5H256H471.2L473.1 445.1C475.6 442.1 475.5 438.9 472.9 435.6L470.9 433H455.9H441V416.5V400H451.9C461.3 400 463.1 399.7 465.4 397.9L468 395.9V378.9C468 357.9 468 358 456.1 358H448.2L447.8 330.7C447.4 306.4 447.1 302.8 445.2 297C440.7 283.3 430.6 270.6 418.5 263.6C412.3 259.9 412.1 259.7 412.8 256.6C413.2 254.9 413.5 240.2 413.5 224C413.4 195.4 413.4 194.3 411.1 188.6C408.1 181.1 402.3 175.3 393.6 171C387.8 168.1 385.8 167.6 379.2 167.6C369.2 167.6 361.1 171 354.4 178.2C345.5 187.7 345.5 187.7 345.5 226.7V260.9L342.5 262.3C336.4 265.2 327.4 272.8 323.1 278.6C320.6 281.8 318.3 284.9 317.9 285.3C317.5 285.8 315.9 284.2 314.2 281.8L311.2 277.4L310.8 241.5C310.4 208.1 310.2 205 308.2 198.9C303.1 183.4 291.1 170.7 275.7 164.2C270.5 162.1 267.6 161.6 258 161.4C251.7 161.2 244.9 161.5 243 162ZM269.8 177.1C280.6 180.8 290 190.3 294.3 201.7C296.2 207 296.4 210.1 296.8 235.7C297 251.3 297 264 296.7 264C296.4 264 294.5 263.1 292.6 261.9C289.1 259.9 289.1 259.7 289.8 255.2C290.2 252.6 290.5 240.8 290.5 229C290.5 211.1 290.2 206.9 288.8 203.8C285.9 197.3 282 193.2 276.2 190.3C271.1 187.8 269.2 187.5 258.4 187.1C238.9 186.6 229.9 190.4 224.4 201.7L221.5 207.5V229C221.5 240.8 221.8 252.6 222.2 255.2C222.9 259.7 222.9 259.9 219.4 261.9C217.5 263.1 215.7 264 215.4 264C214.6 264 215.1 216.3 216 209.7C219.8 183.9 245 168.6 269.8 177.1ZM386.8 182.5C391.5 184.5 394.7 187.5 397.1 192.2C398.7 195.3 399 198.1 399 209V222H378.5H358V211.2C358 204.6 358.6 198.4 359.5 195.4C362.8 184.1 375.8 178 386.8 182.5ZM269.5 202.4C275.5 205 276.5 207.7 276.5 222.4C276.5 237.6 275.5 239 271.1 230.1C269.4 226.8 267.1 223.6 266.1 223C265 222.5 260.5 222 256 222C251.5 222 247 222.5 245.9 223C244.9 223.6 242.6 226.8 240.9 230.1C236.5 239 235.5 237.6 235.5 222.4C235.5 207.8 236.5 205 242.3 202.5C246.7 200.6 264.9 200.5 269.5 202.4ZM154 233C154 250.9 154 251.1 151.5 253.5C150.2 254.9 148.1 256 146.9 256C145.6 256 143.6 257 142.3 258.2C140.1 260.3 140 260.9 140 276.4C140 291.4 139.9 292.5 137.8 294.7C135 297.7 131.5 297.6 128.5 294.5C126.1 292.1 126 291.7 126 276C126 261.3 125.8 259.8 124 258C122.9 256.9 121 256 119.7 256C118.5 256 116.4 255.3 115.2 254.4C113.1 252.9 113 252.4 113 233.9V215H133.5H154V233ZM261 241C264.1 247.5 266 249.1 271.5 249.7C276.7 250.3 277 251.3 274.1 257.5C266.9 273.2 244.2 272.7 237.5 256.8C235.2 251 235.5 250.3 240.5 249.7C246 249.1 247.9 247.5 251 241C252.9 236.8 253.8 236 256 236C258.2 236 259.1 236.8 261 241ZM115.3 300.3C122.3 312.2 137.8 314.2 147.5 304.6C152.7 299.3 154 294.8 154 281.6V271L159.1 273C169.7 277 178.2 285 183.3 295.8L186.5 302.5L186.8 330.2L187.1 358H180.6H174V336.2C174 312.8 174 312.5 168.7 310.7C166.5 309.9 161.5 312.3 160.6 314.5C160.3 315.4 160 325.6 160 337.1V358H156.5C153 358 153 358 153.6 354.2C154.9 345.9 149.6 336.5 141.5 332.9C138.2 331.4 134.8 331 121.8 331H106V323.1C106 313.7 104.3 310.7 98.9999 310.7C92.9999 310.7 91.9999 313.2 91.9999 328C91.9999 340.7 91.9999 340.9 94.5999 342.9C96.7999 344.6 98.6999 345 104.6 345H112V351.5V358H95.4999H79.0999L78.7999 342.6C78.2999 318.7 79.2999 304.5 81.7999 298C86.0999 287.2 96.0999 277 106.5 273.1L111.5 271.2L112.1 283.4C112.6 294.4 112.9 296.2 115.3 300.3ZM240.5 279.5C242 280.4 240.5 282.7 228.6 297.9L215 315.3V336.7V358H208H201V335.2C201 322.6 201.5 309.7 202.1 306.4C204.4 293.5 213.8 280.7 225.1 274.9L230.4 272.3L234.5 275.4C236.8 277.1 239.5 279 240.5 279.5ZM283 294.5V316L270.8 337L258.5 357.9L243.8 358H229V338.7V319.5L243.1 301.5C257 283.8 257.3 283.5 261.7 282.8C267 282 275.9 277.9 278.5 275C282.7 270.4 283 271.7 283 294.5ZM358.1 276.5C360.5 278.4 364.6 280.7 367.3 281.6L372 283.2V307.5C372 330.4 371.9 331.9 370.1 332.5C367 333.5 361.1 340.1 359.4 344.6C358.3 347.4 357.9 350.6 358.2 353.5L358.8 358H355.4H352V336.5C352 314.9 352 314.9 349.5 312.5C346.5 309.5 344.1 309.4 340.6 312.1L338 314.1V336.1V358H331.4H324.9L325.2 330.2L325.5 302.5L328.9 295.5C332.9 287.4 341.2 278.5 348 275.2C350.5 274 352.8 273 353.1 273C353.4 273 355.7 274.6 358.1 276.5ZM410.2 275.6C417.7 279.4 424.5 286.8 428.8 295.8L432.5 303.5L432.8 330.7L433.1 358H416.6H400V351.5V345H408C419.7 345 420 344.6 420 327.6C420 314.3 420 314.1 417.4 312.1C415.9 310.9 414 310 413 310C412 310 410.1 310.9 408.6 312.1C406.2 314 406 314.7 406 322.6V331H396H386V307.2V283.4L392.4 280.7C395.9 279.1 399.8 276.8 401.1 275.4C403.9 272.4 403.9 272.4 410.2 275.6ZM305.8 294.4C310.2 303.3 311 309.7 311 335.2V358H304H297V320.3V282.6L299.9 285.4C301.5 287 304.2 291 305.8 294.4ZM283 351V358H278.6H274.2L278.2 351C280.4 347.1 282.4 344 282.6 344C282.8 344 283 347.1 283 351ZM138 347C140.4 349.4 140.6 352.7 138.4 355.8C137.2 357.6 135.9 358 131.4 358H126V351.5V345H131C134.7 345 136.5 345.5 138 347ZM386 351.5V358H380.6C376.1 358 374.8 357.6 373.6 355.8C369.6 350.2 373.2 345 381 345H386V351.5ZM454 378.5V385H253H51.9999V378.5V372H253H454V378.5ZM426 416.5V433H252.5H78.9999V416.5V400H252.5H426V416.5Z" fill="white"/>
</svg>
