<svg width="716" height="714" viewBox="0 0 716 714" fill="none" xmlns="http://www.w3.org/2000/svg">
<g clip-path="url(#clip0_33_517)">
<path d="M308.954 166.375C299.337 171.399 295.113 176.003 270.534 207.858L245.956 239.713L241.398 235.079C230.994 224.469 219.405 220.073 204.73 221.237C195.148 222.019 188.027 224.59 180.684 230.016C177.924 232.001 160.671 253.791 129.711 294.475C90.3428 346.175 82.1727 357.463 78.4863 365.324C65.1252 393.554 62.6041 424.364 70.9983 453.808L74.2007 464.881L57.9123 486.34C48.9301 498.342 41.5854 509.015 41.362 510.357C41.2511 511.784 47.1288 556.298 54.3363 609.209L67.5858 705.603L71.8445 708.765L76.0174 712.038L158.616 701.247C214.726 693.812 241.855 689.966 243.447 689.046C244.755 688.265 255.83 674.569 268.013 658.605L290.05 629.614L297.386 630.142C306.856 630.787 331.264 627.711 340.737 624.622C357.371 619.26 374.239 609.629 387.576 597.748C396.226 590.028 531.577 413.842 536.154 404.349C540.329 395.615 541.206 387.123 539.166 375.693C537.831 368.002 536.89 365.505 533.568 360.301C529.226 353.518 521.197 346.323 514.983 343.626C512.841 342.703 510.91 341.853 510.685 341.681C510.361 341.523 513.324 337.291 517.073 332.146C528.345 316.91 530.782 308.006 527.891 291.746C526.503 283.659 525.688 281.347 522.239 275.958C517.534 268.72 508.758 261.222 501.962 258.704C498.564 257.445 497.328 256.501 497.578 255.358C501.029 243.493 500.151 230.191 495.172 220.165C487.941 205.396 474.187 196.144 457.791 195.017C451.573 194.54 451.573 194.54 450.346 190.669C445.447 174.477 431.479 162.127 415.055 159.288C410.098 158.44 406.576 158.51 398.885 159.845C390.402 161.287 388.189 162.089 382.985 165.411C379.643 167.575 374.572 171.889 371.575 175.117L366.307 180.97L362.947 176.982C358.269 171.455 350.434 166.454 342.409 163.798C336.189 161.809 334.464 161.738 324.612 162.758C316.062 163.705 312.646 164.567 308.954 166.375ZM332.261 193.413C339.161 195.21 343.8 201.953 343.06 209.216C342.818 211.165 334.417 222.989 318.214 244.336L293.689 276.587L290.454 272.784C286.743 268.44 278.126 262.13 274.233 260.938C272.766 260.53 271.569 259.883 271.529 259.586C271.489 259.289 282.345 244.714 295.73 227.176C322.757 191.763 323.384 191.174 332.261 193.413ZM408.634 189.612C416.248 190.709 422.303 198.976 420.882 206.432C420.304 209.637 414.761 217.949 413.835 217.064C413.61 216.893 411.732 214.925 409.813 212.661C405.665 208.072 401.631 205.082 395.8 202.233L391.814 200.347L395.074 196.075C397.747 192.689 400.963 190.34 404.352 189.279C404.636 189.14 406.586 189.383 408.634 189.612ZM212.346 252.4C218.916 254.746 222.9 260.366 222.563 266.869C222.394 270.12 216.626 278.261 178.472 328.486C151.545 363.886 132.631 389.835 129.616 395.184C120.308 412.275 114.111 434.497 113.832 452.697C113.584 463.627 116.631 484.81 119.752 493.774L122.237 501.008L100.359 529.675L78.5792 558.329L75.9169 538.507L73.2545 518.685L89.6554 497.312C98.6642 485.508 106.491 474.669 107.084 473.076C108.62 468.733 107.729 463.606 103.821 454.041C100.841 446.874 99.9386 443.161 98.4802 431.552C96.4169 416.19 96.8327 408.768 100.25 395.899C104.675 379.262 107.44 375.056 153.658 314.263C177.497 282.911 198.313 256.101 199.766 254.897C202.856 252.363 208.849 251.155 212.346 252.4ZM381.296 230.213C385.315 231.59 387.742 233.887 389.795 238.657C392.862 245.711 393.106 245.275 346.431 306.432C322.309 337.924 301.909 365.585 301.085 367.714C296.321 381.067 310.19 393.431 322.62 386.817C324.027 386.023 351.602 350.94 384.476 307.982C417.093 265.361 444.985 229.63 446.649 228.498C456.819 221.583 469.971 230.108 468.648 242.797C468.406 244.747 449.722 270.16 408.367 324.347C355.027 394.471 348.375 403.538 347.876 407.338C347.313 412.156 349.023 417.375 352.105 420.795C355.988 424.914 366.516 425.922 371.41 422.541C372.519 421.786 396.022 391.69 423.662 355.589C451.303 319.488 474.806 289.392 476.001 288.525C479.243 286.374 485.415 285.747 489.361 287.336C491.503 288.259 494.03 290.543 495.79 293.132C501.686 301.723 503.91 297.994 446.709 373.178C411.802 419.032 395.679 440.974 395.437 442.924C395.031 447.417 397.027 454.011 399.845 456.962C403.265 460.639 409.927 462.166 415.569 460.601C419.751 459.434 421.15 457.833 452.995 416.224C489.228 368.98 489.314 368.868 497.715 370.565C503.518 371.702 508.538 376.779 509.257 382.131C509.577 384.51 509.309 387.775 508.643 389.579C506.719 394.782 372.997 568.831 366.5 574.547C358.379 581.691 346.947 588.978 337.482 592.873C325.136 597.861 307.467 600.032 292.009 598.375C280.847 597.15 280.252 597.23 276.487 599.249C273.476 600.864 267.033 608.49 249.801 631.185L227.065 660.977L160.958 669.856L94.7527 678.748L89.6544 640.789L84.5694 602.929L118.988 557.947C137.864 533.214 153.973 511.174 154.797 509.045C156.563 504.166 156.191 501.391 152.475 492.507C141.884 466.99 142.328 440.999 153.849 416.346C158.788 405.795 245.292 291.866 250.121 289.502C254.295 287.529 259.384 287.854 263.351 290.348C267.755 293.087 269.913 297.135 269.951 302.68C270.055 307.206 269.467 308.092 246.5 338.419C226.866 364.263 222.814 370.155 222.289 373.757C221.303 379.943 223.257 384.725 228.204 388.501C233.15 392.276 237.77 392.866 243.788 390.342C247.619 388.819 253.665 381.247 307.645 310.633C340.434 267.787 368.141 232.182 369.151 231.44C371.812 229.469 377.092 228.961 381.296 230.213Z" fill="white"/>
</g>
<path d="M596.964 220.537C596.423 221.049 595.911 221.534 595.438 221.977C590.522 227.612 582.507 229.788 575.383 227.424C571.736 226.429 567.338 225.266 563.669 224.649C561.83 224.339 560.202 224.172 558.956 224.224C558.333 224.25 557.829 224.33 557.452 224.461C557.074 224.592 556.868 224.757 556.765 224.924C556.658 225.097 556.607 225.354 556.669 225.738C556.73 226.123 556.9 226.594 557.18 227.145C557.74 228.245 558.692 229.57 559.886 231.011C562.268 233.884 565.535 237.128 568.32 239.825C573.989 244.746 576.206 252.749 573.868 259.852C573.727 260.486 573.572 261.173 573.408 261.899C572.749 264.816 571.949 268.353 571.425 271.483C571.097 273.445 570.882 275.22 570.874 276.569C570.87 277.245 570.919 277.787 571.019 278.181C571.123 278.593 571.257 278.743 571.338 278.788C571.418 278.834 571.615 278.873 572.022 278.753C572.412 278.638 572.903 278.403 573.483 278.054C574.639 277.36 576.056 276.269 577.576 274.986C580.001 272.939 582.635 270.446 584.807 268.391C585.348 267.88 585.86 267.395 586.333 266.951C591.247 261.319 599.255 259.143 606.377 261.501C607.013 261.644 607.702 261.802 608.431 261.968C611.357 262.637 614.905 263.449 618.045 263.983C620.012 264.318 621.793 264.54 623.145 264.553C623.823 264.559 624.366 264.513 624.761 264.415C625.174 264.312 625.322 264.179 625.366 264.101C625.41 264.024 625.449 263.829 625.327 263.421C625.21 263.032 624.973 262.541 624.621 261.961C623.92 260.805 622.821 259.386 621.529 257.865C619.468 255.438 616.959 252.799 614.891 250.624C614.376 250.083 613.889 249.57 613.442 249.096C607.78 244.174 605.566 236.176 607.903 229.076C608.044 228.443 608.199 227.755 608.363 227.029C609.022 224.113 609.822 220.576 610.346 217.446C610.674 215.484 610.889 213.708 610.897 212.36C610.901 211.684 610.852 211.142 610.752 210.747C610.648 210.336 610.514 210.186 610.433 210.14C610.353 210.095 610.156 210.056 609.749 210.176C609.359 210.291 608.868 210.526 608.288 210.874C607.132 211.569 605.715 212.66 604.195 213.943C601.77 215.99 599.136 218.482 596.964 220.537Z" fill="white" stroke="#D4D4D4"/>
<path d="M614.645 327.293C613.968 327.933 613.327 328.54 612.735 329.095C606.623 336.105 596.653 338.812 587.792 335.87C583.233 334.627 577.728 333.171 573.135 332.398C570.833 332.011 568.788 331.8 567.217 331.866C566.431 331.898 565.789 331.999 565.302 332.168C564.814 332.337 564.526 332.558 564.377 332.8C564.223 333.05 564.16 333.404 564.24 333.902C564.32 334.402 564.538 335.003 564.891 335.698C565.597 337.086 566.794 338.75 568.289 340.554C571.271 344.151 575.361 348.212 578.843 351.583C585.894 357.704 588.652 367.659 585.741 376.493C585.566 377.285 585.371 378.146 585.166 379.055C584.342 382.701 583.341 387.127 582.686 391.044C582.275 393.497 582.005 395.725 581.995 397.421C581.99 398.271 582.051 398.96 582.18 399.468C582.313 399.992 582.492 400.221 582.638 400.304C582.783 400.387 583.071 400.424 583.59 400.271C584.093 400.123 584.717 399.823 585.445 399.385C586.899 398.512 588.677 397.143 590.578 395.538C593.612 392.977 596.908 389.858 599.623 387.289C600.301 386.648 600.942 386.042 601.534 385.486C607.643 378.479 617.607 375.771 626.466 378.708C627.26 378.886 628.124 379.083 629.036 379.292C632.694 380.128 637.134 381.144 641.062 381.813C643.523 382.231 645.757 382.51 647.457 382.526C648.31 382.534 649.001 382.476 649.509 382.35C650.035 382.219 650.262 382.041 650.343 381.899C650.424 381.756 650.462 381.47 650.306 380.951C650.155 380.449 649.852 379.825 649.411 379.097C648.529 377.643 647.15 375.863 645.534 373.961C642.955 370.923 639.816 367.622 637.231 364.903C636.586 364.225 635.975 363.583 635.417 362.99C628.372 356.87 625.618 346.919 628.527 338.089C628.703 337.297 628.897 336.436 629.103 335.526C629.927 331.881 630.928 327.454 631.583 323.538C631.993 321.084 632.263 318.857 632.273 317.161C632.278 316.311 632.217 315.621 632.089 315.114C631.956 314.589 631.776 314.36 631.631 314.277C631.486 314.194 631.197 314.157 630.678 314.31C630.176 314.459 629.552 314.758 628.823 315.196C627.37 316.07 625.592 317.439 623.691 319.043C620.657 321.605 617.36 324.724 614.645 327.293Z" fill="white" stroke="#D4D4D4"/>
<path d="M372.136 80.5812C371.52 80.1621 370.938 79.7651 370.403 79.3976C363.849 75.7967 360.014 68.4308 360.804 60.9657C360.998 57.1906 361.196 52.6454 361.016 48.9301C360.926 47.0673 360.742 45.441 360.426 44.2346C360.267 43.631 360.082 43.1564 359.874 42.816C359.665 42.4745 359.46 42.3079 359.275 42.2432C359.083 42.1762 358.821 42.1808 358.459 42.3228C358.096 42.4653 357.672 42.7313 357.194 43.1224C356.238 43.904 355.147 45.117 353.994 46.5912C351.695 49.5306 349.222 53.4145 347.182 56.7112C343.583 63.2989 336.237 67.1727 328.799 66.4033C328.15 66.4013 327.445 66.3961 326.701 66.3906C323.711 66.3686 320.084 66.3419 316.914 66.4981C314.928 66.596 313.148 66.7648 311.828 67.0447C311.167 67.1851 310.648 67.3482 310.284 67.53C309.904 67.7196 309.786 67.8825 309.759 67.9707C309.731 68.0589 309.735 68.26 309.94 68.6319C310.135 68.9885 310.469 69.4181 310.933 69.91C311.859 70.891 313.227 72.0432 314.804 73.2541C317.322 75.1866 320.319 77.2287 322.79 78.9123C323.405 79.3314 323.988 79.7284 324.522 80.0959C331.073 83.6949 334.907 91.0551 334.122 98.5163C334.119 99.1673 334.112 99.8749 334.104 100.622C334.075 103.623 334.039 107.263 334.187 110.445C334.279 112.438 334.443 114.225 334.718 115.549C334.856 116.213 335.018 116.734 335.198 117.099C335.386 117.48 335.548 117.596 335.633 117.622C335.718 117.649 335.917 117.646 336.289 117.439C336.645 117.242 337.074 116.905 337.565 116.438C338.545 115.507 339.697 114.13 340.907 112.544C342.839 110.012 344.882 106.998 346.565 104.514C346.984 103.895 347.381 103.31 347.749 102.772C351.35 96.1906 358.692 92.3212 366.127 93.0902C366.775 93.0922 367.48 93.0974 368.225 93.1028C371.215 93.1249 374.841 93.1515 378.011 92.9953C379.997 92.8974 381.778 92.7287 383.097 92.4488C383.758 92.3084 384.278 92.1453 384.642 91.9635C385.021 91.7739 385.139 91.6109 385.166 91.5227C385.194 91.4345 385.19 91.2335 384.986 90.8616C384.79 90.505 384.456 90.0754 383.992 89.5834C383.066 88.6025 381.698 87.4502 380.121 86.2393C377.604 84.3069 374.606 82.2648 372.136 80.5812Z" fill="white" stroke="#D4D4D4"/>
<path d="M271.61 120.628C270.839 120.103 270.11 119.606 269.441 119.146C261.289 114.67 256.517 105.508 257.501 96.2229C257.743 91.504 257.991 85.8148 257.767 81.1625C257.654 78.8312 257.424 76.7881 257.025 75.2674C256.825 74.5066 256.589 73.9006 256.321 73.4607C256.051 73.0197 255.774 72.7857 255.506 72.6919C255.229 72.5949 254.869 72.6088 254.4 72.793C253.929 72.9777 253.387 73.3189 252.784 73.8121C251.579 74.7979 250.208 76.3228 248.765 78.1678C245.886 81.8489 242.791 86.7106 240.241 90.8318C235.765 99.0262 226.627 103.844 217.376 102.885C216.565 102.882 215.682 102.876 214.75 102.869C211.013 102.842 206.474 102.808 202.508 103.004C200.024 103.126 197.79 103.337 196.131 103.689C195.3 103.866 194.639 104.072 194.17 104.306C193.686 104.548 193.501 104.772 193.451 104.932C193.401 105.092 193.426 105.381 193.686 105.856C193.938 106.315 194.364 106.861 194.947 107.479C196.111 108.713 197.828 110.158 199.801 111.673C202.951 114.091 206.701 116.646 209.79 118.751C210.56 119.276 211.29 119.772 211.958 120.232C220.108 124.707 224.878 133.863 223.9 143.144C223.895 143.959 223.886 144.845 223.877 145.781C223.84 149.532 223.795 154.087 223.98 158.068C224.095 160.561 224.3 162.803 224.647 164.467C224.821 165.302 225.025 165.965 225.257 166.434C225.497 166.92 225.719 167.104 225.875 167.153C226.032 167.202 226.319 167.177 226.793 166.914C227.251 166.66 227.796 166.231 228.414 165.644C229.646 164.473 231.091 162.746 232.605 160.761C235.022 157.594 237.578 153.823 239.682 150.717C240.208 149.942 240.705 149.209 241.164 148.537C245.642 140.348 254.776 135.535 264.023 136.494C264.835 136.496 265.717 136.503 266.649 136.509C270.387 136.537 274.925 136.57 278.891 136.375C281.376 136.252 283.61 136.041 285.269 135.689C286.1 135.513 286.761 135.306 287.229 135.072C287.713 134.83 287.899 134.606 287.949 134.447C287.999 134.287 287.974 133.997 287.713 133.523C287.461 133.064 287.035 132.518 286.452 131.899C285.288 130.666 283.572 129.221 281.599 127.706C278.449 125.288 274.698 122.733 271.61 120.628Z" fill="white" stroke="#D4D4D4"/>
<defs>
<clipPath id="clip0_33_517">
<rect width="512" height="512" fill="white" transform="translate(0 206.155) rotate(-7.64967)"/>
</clipPath>
</defs>
</svg>
